<svg width="625" height="521" viewBox="0 0 625 521" fill="none" xmlns="http://www.w3.org/2000/svg">
<path d="M394.915 429.678L311.079 478.357L226.695 429.679L310.531 381L394.915 429.678Z" fill="#171717"/>
<path d="M520.915 340.678L437.079 389.357L352.695 340.679L436.531 292L520.915 340.678Z" fill="#171717"/>
<path d="M271.915 340.678L188.079 389.357L103.695 340.679L187.531 292L271.915 340.678Z" fill="#171717"/>
<path d="M313.524 520.721C308.52 520.725 303.603 519.413 299.267 516.917L8.34783 349.189C5.81325 347.728 3.70786 345.627 2.24272 343.097C0.777573 340.567 0.00416262 337.697 1.67561e-05 334.774C-0.00412911 331.852 0.761135 328.979 2.21909 326.445C3.67705 323.911 5.77647 321.804 8.3069 320.336L297.15 152.712C301.491 150.2 306.419 148.874 311.436 148.867C316.454 148.86 321.385 150.172 325.734 152.671L616.653 320.4C619.187 321.861 621.292 323.962 622.758 326.492C624.223 329.022 624.996 331.893 625 334.815C625.005 337.738 624.239 340.61 622.781 343.144C621.323 345.678 619.224 347.785 616.693 349.254L327.85 516.877C323.498 519.399 318.555 520.725 313.524 520.721ZM311.477 149.942C306.635 149.939 301.879 151.215 297.69 153.641L8.84761 321.266C6.48055 322.64 4.5167 324.611 3.1529 326.981C1.78911 329.352 1.0733 332.039 1.07723 334.773C1.08116 337.507 1.80468 340.192 3.17528 342.559C4.54588 344.925 6.51539 346.891 8.88639 348.258L299.806 515.987C303.99 518.391 308.735 519.653 313.563 519.646C318.391 519.639 323.131 518.363 327.309 515.947L616.154 348.323C618.521 346.949 620.485 344.978 621.849 342.608C623.213 340.237 623.929 337.55 623.925 334.815C623.921 332.081 623.197 329.396 621.826 327.03C620.455 324.663 618.485 322.697 616.114 321.331L325.196 153.603C321.024 151.201 316.293 149.939 311.477 149.942Z" fill="#353535"/>
<path d="M396.65 151.836L396.413 235.648L312.577 284.3L312.815 200.489L396.65 151.836Z" fill="#262626"/>
<path d="M312.815 200.489L312.577 284.3L228.193 235.649L228.431 151.836L312.815 200.489Z" fill="#404040"/>
<path d="M396.65 151.837L312.815 200.489L228.431 151.837L312.267 103.184L396.65 151.837Z" fill="#171717"/>
<path d="M396.65 61.6818L396.413 145.495L312.577 194.147L312.815 110.334L396.65 61.6818Z" fill="#262626"/>
<path d="M312.815 110.334L312.577 194.147L228.193 145.496L228.431 61.6829L312.815 110.334Z" fill="#404040"/>
<path d="M396.65 61.6818L312.815 110.334L228.431 61.6829L312.267 13.0307L396.65 61.6818Z" fill="#323232"/>
<path d="M521.312 240.297L521.074 324.11L437.239 372.762L437.477 288.949L521.312 240.297Z" fill="#262626"/>
<path d="M437.477 288.949L437.239 372.762L352.854 324.111L353.093 240.298L437.477 288.949Z" fill="#404040"/>
<path d="M521.312 240.297L437.477 288.949L353.093 240.298L436.929 191.646L521.312 240.297Z" fill="#171717"/>
<path d="M521.312 150.149L521.074 233.962L437.239 282.614L437.477 198.801L521.312 150.149Z" fill="#262626"/>
<path d="M437.477 198.801L437.239 282.614L352.854 233.963L353.093 150.15L437.477 198.801Z" fill="#404040"/>
<path d="M521.312 150.149L437.477 198.801L353.093 150.15L436.929 101.498L521.312 150.149Z" fill="#323232"/>
<path d="M271.457 240.297L271.219 324.11L187.384 372.762L187.622 288.949L271.457 240.297Z" fill="#262626"/>
<path d="M187.622 288.949L187.384 372.762L103 324.111L103.238 240.298L187.622 288.949Z" fill="#404040"/>
<path d="M271.457 240.297L187.622 288.949L103.238 240.298L187.073 191.646L271.457 240.297Z" fill="#171717"/>
<path d="M290.979 128.443V134.66L248.626 110.233V104.027L290.979 128.443Z" fill="#5B5B5B"/>
<path d="M290.979 148.933V155.14L248.626 130.723V124.517L290.979 148.933Z" fill="#5B5B5B"/>
<path d="M290.979 218.601V224.807L248.626 200.38V194.174L290.979 218.601Z" fill="#5B5B5B"/>
<path d="M290.979 239.081V245.287L248.626 220.87V214.664L290.979 239.081Z" fill="#F2F2F2"/>
<path d="M271.457 150.149L271.219 233.962L187.384 282.614L187.622 198.801L271.457 150.149Z" fill="#262626"/>
<path d="M187.622 198.801L187.384 282.614L103 233.963L103.238 150.15L187.622 198.801Z" fill="#404040"/>
<path d="M271.457 150.149L187.622 198.801L103.238 150.15L187.073 101.498L271.457 150.149Z" fill="#323232"/>
<path d="M416.341 218.563V224.78L373.989 200.353V194.147L416.341 218.563Z" fill="#5B5B5B"/>
<path d="M416.341 239.054V245.26L373.989 220.844V214.637L416.341 239.054Z" fill="#5B5B5B"/>
<path d="M416.341 308.721V314.927L373.989 290.5V284.294L416.341 308.721Z" fill="#5B5B5B"/>
<path d="M416.341 329.201V335.407L373.989 310.991V304.784L416.341 329.201Z" fill="#5B5B5B"/>
<path d="M396.117 328.762L395.879 412.575L312.043 461.227L312.281 377.414L396.117 328.762Z" fill="#262626"/>
<path d="M312.281 377.414L312.043 461.227L227.66 412.576L227.897 328.763L312.281 377.414Z" fill="#404040"/>
<path d="M396.117 328.762L312.281 377.414L227.896 328.763L311.732 280.111L396.117 328.762Z" fill="#171717"/>
<path d="M396.117 238.614L395.879 322.427L312.043 371.079L312.281 287.266L396.117 238.614Z" fill="#262626"/>
<path d="M312.281 287.266L312.043 371.079L227.66 322.428L227.897 238.615L312.281 287.266Z" fill="#404040"/>
<path d="M396.117 238.614L312.281 287.266L227.896 238.615L311.732 189.963L396.117 238.614Z" fill="#323232"/>
<path d="M165.615 215.24V221.457L123.263 197.029V190.823L165.615 215.24Z" fill="#5B5B5B"/>
<path d="M165.615 235.73V241.936L123.263 217.52V211.314L165.615 235.73Z" fill="#5B5B5B"/>
<path d="M165.615 305.398V311.604L123.263 287.177V280.97L165.615 305.398Z" fill="#5B5B5B"/>
<path d="M165.615 325.877V332.084L123.263 307.667V301.461L165.615 325.877Z" fill="#5B5B5B"/>
<path d="M292.633 307.03V313.247L250.281 288.82V282.614L292.633 307.03Z" fill="#5B5B5B"/>
<path d="M292.633 327.521V333.727L250.281 309.311V303.104L292.633 327.521Z" fill="#5B5B5B"/>
<path d="M292.633 397.188V403.395L250.281 378.967V372.761L292.633 397.188Z" fill="#5B5B5B"/>
<path d="M292.633 417.668V423.874L250.281 399.458V393.251L292.633 417.668Z" fill="#5B5B5B"/>
<path d="M436.591 184.65C435.36 184.652 434.15 184.329 433.083 183.714L382.118 154.33C381.382 153.905 380.771 153.296 380.346 152.561C379.921 151.827 379.696 150.994 379.695 150.145C379.694 149.297 379.916 148.463 380.339 147.728C380.762 146.992 381.371 146.38 382.106 145.954L432.693 116.596C433.762 115.978 434.974 115.652 436.209 115.65C437.443 115.648 438.657 115.971 439.727 116.585L490.693 145.97C491.429 146.394 492.04 147.004 492.465 147.739C492.891 148.473 493.115 149.307 493.116 150.155C493.117 151.004 492.895 151.838 492.472 152.573C492.049 153.309 491.439 153.921 490.704 154.347L440.117 183.705C439.046 184.325 437.83 184.651 436.591 184.65ZM436.219 116.725C435.171 116.724 434.141 117 433.234 117.526L382.646 146.883C382.075 147.215 381.601 147.691 381.272 148.263C380.943 148.835 380.77 149.484 380.771 150.144C380.772 150.803 380.947 151.452 381.278 152.023C381.608 152.594 382.084 153.068 382.656 153.398L433.621 182.779C434.527 183.299 435.554 183.572 436.599 183.57C437.644 183.569 438.67 183.293 439.575 182.77L490.169 153.414C490.741 153.083 491.215 152.607 491.544 152.035C491.874 151.462 492.046 150.814 492.045 150.154C492.044 149.494 491.87 148.845 491.539 148.274C491.208 147.703 490.732 147.228 490.159 146.898L439.194 117.515C438.289 116.995 437.263 116.722 436.219 116.725Z" fill="#171717"/>
<path d="M313.001 273.114C311.77 273.116 310.56 272.793 309.493 272.178L258.525 242.798C257.789 242.374 257.178 241.764 256.753 241.029C256.327 240.295 256.103 239.461 256.102 238.613C256.1 237.764 256.323 236.93 256.746 236.195C257.169 235.459 257.779 234.847 258.513 234.421L309.101 205.063C310.17 204.446 311.383 204.12 312.618 204.119C313.853 204.117 315.066 204.44 316.137 205.056L367.098 234.435C367.834 234.859 368.445 235.469 368.871 236.204C369.296 236.938 369.521 237.772 369.522 238.62C369.523 239.469 369.301 240.302 368.877 241.038C368.454 241.774 367.845 242.386 367.11 242.812L316.522 272.169C315.453 272.788 314.238 273.114 313.001 273.114ZM312.627 205.189C311.579 205.189 310.55 205.465 309.643 205.99L259.056 235.348C258.485 235.68 258.011 236.155 257.682 236.728C257.352 237.3 257.18 237.948 257.18 238.608C257.181 239.268 257.356 239.916 257.687 240.487C258.017 241.059 258.493 241.533 259.065 241.863L310.032 271.248C310.938 271.768 311.965 272.041 313.01 272.039C314.055 272.038 315.082 271.761 315.986 271.238L366.574 241.881C367.145 241.55 367.619 241.074 367.949 240.502C368.278 239.929 368.451 239.281 368.45 238.621C368.449 237.961 368.274 237.312 367.943 236.741C367.612 236.17 367.136 235.695 366.564 235.365L315.599 205.982C314.695 205.462 313.671 205.188 312.627 205.189Z" fill="#171717"/>
<path d="M187.415 183.681C186.184 183.682 184.973 183.36 183.906 182.745L132.94 153.361C132.205 152.936 131.594 152.326 131.168 151.592C130.743 150.858 130.519 150.024 130.518 149.176C130.516 148.328 130.738 147.494 131.162 146.758C131.585 146.023 132.194 145.411 132.928 144.985L183.516 115.627C184.585 115.009 185.797 114.683 187.032 114.681C188.267 114.68 189.48 115.002 190.551 115.617L241.516 145.001C242.252 145.425 242.864 146.035 243.289 146.769C243.715 147.504 243.939 148.337 243.941 149.186C243.942 150.034 243.72 150.868 243.297 151.604C242.873 152.34 242.264 152.951 241.529 153.378L241.258 152.913L241.529 153.378L190.941 182.736C189.87 183.356 188.653 183.682 187.415 183.681ZM187.043 115.756C185.994 115.755 184.964 116.032 184.058 116.557L133.472 145.914C132.901 146.246 132.427 146.721 132.098 147.294C131.769 147.866 131.596 148.514 131.597 149.174C131.597 149.834 131.772 150.482 132.103 151.053C132.433 151.625 132.909 152.099 133.481 152.429L184.447 181.815C185.353 182.335 186.38 182.608 187.425 182.606C188.47 182.605 189.497 182.328 190.401 181.805L240.988 152.446C241.559 152.115 242.033 151.639 242.362 151.067C242.691 150.495 242.864 149.846 242.863 149.186C242.862 148.526 242.687 147.878 242.356 147.307C242.026 146.736 241.55 146.261 240.978 145.931L190.012 116.547C189.109 116.028 188.085 115.755 187.043 115.756Z" fill="#171717"/>
<path d="M313.001 95.7615C311.77 95.7626 310.56 95.4394 309.493 94.8247L258.525 65.4443C257.789 65.02 257.178 64.4099 256.753 63.6754C256.328 62.9408 256.103 62.1075 256.102 61.259C256.101 60.4104 256.323 59.5766 256.747 58.8409C257.17 58.1052 257.78 57.4936 258.514 57.0674L309.101 27.7107C310.17 27.0923 311.382 26.7658 312.617 26.7639C313.852 26.762 315.066 27.0848 316.137 27.6999L367.098 57.0846C367.834 57.5089 368.445 58.1189 368.87 58.8533C369.295 59.5877 369.52 60.4208 369.521 61.2691C369.522 62.1175 369.3 62.9512 368.877 63.6868C368.454 64.4224 367.844 65.0341 367.11 65.4604L316.527 94.8182C315.455 95.4381 314.239 95.7636 313.001 95.7615ZM312.628 27.8355C311.58 27.8345 310.55 28.111 309.644 28.6368L259.056 57.9968C258.485 58.3283 258.011 58.804 257.682 59.3761C257.352 59.9483 257.179 60.5968 257.18 61.2567C257.181 61.9166 257.356 62.5647 257.687 63.136C258.017 63.7073 258.493 64.1817 259.065 64.5117L310.032 93.8964C310.937 94.417 311.965 94.6903 313.01 94.6887C314.055 94.6872 315.081 94.411 315.986 93.8878L366.573 64.5311C367.145 64.1995 367.619 63.7237 367.948 63.1515C368.277 62.5793 368.45 61.9307 368.449 61.2708C368.448 60.6109 368.273 59.9629 367.942 59.3916C367.611 58.8204 367.136 58.3461 366.564 58.0161L315.599 28.6314C314.696 28.1116 313.671 27.8382 312.628 27.8387V27.8355Z" fill="#171717"/>
<path d="M220.834 82.9338C220.834 82.7348 220.819 82.5347 220.806 82.3346C220.806 82.2432 220.792 82.1507 220.784 82.0593L220.774 81.941C220.774 81.8711 220.765 81.8012 220.758 81.7259C220.739 81.5244 220.716 81.3221 220.69 81.1192C220.665 80.9127 220.634 80.7051 220.602 80.4964V80.4781V80.4523C220.572 80.2587 220.539 80.0647 220.502 79.8704C220.461 79.6553 220.418 79.4402 220.371 79.2251C220.353 79.1476 220.334 79.0702 220.317 78.9938L220.284 78.8583C220.263 78.7636 220.242 78.67 220.219 78.5754C220.165 78.356 220.107 78.1365 220.045 77.9171C220.001 77.7568 219.953 77.5944 219.905 77.4363C219.896 77.4062 219.888 77.3761 219.878 77.346C219.869 77.3158 219.862 77.29 219.854 77.2621C219.788 77.0469 219.72 76.8318 219.648 76.6167C219.576 76.4016 219.504 76.195 219.427 75.9842C219.413 75.9455 219.398 75.9057 219.383 75.867L219.347 75.7713C219.298 75.64 219.249 75.5077 219.199 75.3776C219.12 75.1754 219.039 74.9753 218.956 74.7742C218.896 74.63 218.832 74.4859 218.77 74.3439L218.738 74.2686L218.702 74.1847C218.614 73.9847 218.523 73.7853 218.429 73.5867C218.326 73.3716 218.22 73.1489 218.112 72.9316L218.06 72.8327C218.039 72.7897 218.016 72.7466 217.993 72.7036C217.905 72.5304 217.818 72.3583 217.726 72.1862C217.612 71.9711 217.489 71.7625 217.37 71.5516C217.308 71.4441 217.249 71.3365 217.186 71.2289C217.161 71.187 217.138 71.144 217.113 71.102C217.006 70.917 216.885 70.7417 216.773 70.5642C216.608 70.2964 216.45 70.0264 216.272 69.7672C216.245 69.7252 216.22 69.6811 216.192 69.6403C215.94 69.2627 215.679 68.8873 215.41 68.5281V68.5216C215.23 68.2775 215.045 68.0354 214.858 67.7977C214.706 67.6048 214.552 67.4145 214.396 67.2266L214.386 67.2158L214.379 67.2061C214.221 67.0168 214.061 66.8297 213.899 66.6458C213.738 66.4618 213.576 66.2865 213.416 66.1079C213.39 66.08 213.362 66.0531 213.336 66.0251L213.252 65.938C213.138 65.8165 213.024 65.6949 212.907 65.5766C212.735 65.4002 212.56 65.2277 212.384 65.0592C212.33 65.0076 212.276 64.9592 212.221 64.9086L212.097 64.7935C212.011 64.7129 211.925 64.6311 211.838 64.5526C211.655 64.3884 211.471 64.2278 211.285 64.0707C211.205 64.004 211.124 63.9395 211.043 63.8728L210.917 63.7653C210.855 63.7158 210.795 63.6642 210.734 63.6158C210.553 63.4738 210.372 63.335 210.189 63.2006C210.057 63.1048 209.926 63.0123 209.793 62.9198L209.717 62.866L209.649 62.8176C209.475 62.6986 209.299 62.5828 209.122 62.4702C208.946 62.3576 208.771 62.2501 208.598 62.1475L208.475 62.0765L182.15 46.8996C182.018 46.8233 181.886 46.7491 181.755 46.6781C181.585 46.587 181.415 46.4992 181.246 46.4145C181.138 46.3608 181.03 46.3124 180.922 46.2618L180.841 46.2231C180.808 46.2091 180.776 46.1919 180.745 46.1779C180.577 46.1062 180.411 46.0345 180.247 45.9628C180.079 45.8961 179.912 45.8326 179.746 45.7745L179.661 45.7466L179.573 45.7294C179.46 45.6917 179.348 45.653 179.236 45.6218C179.063 45.5702 178.892 45.5232 178.723 45.4809C178.641 45.4605 178.56 45.4443 178.48 45.4261L178.372 45.4024C178.319 45.3916 178.264 45.3776 178.215 45.3669C178.03 45.3314 177.849 45.3013 177.67 45.2776C177.562 45.2626 177.454 45.255 177.346 45.2443L177.231 45.2324C177.195 45.2324 177.158 45.2238 177.123 45.2217C176.926 45.2077 176.731 45.2012 176.54 45.2023C176.455 45.2023 176.373 45.2109 176.289 45.2142L176.095 45.2228C176.029 45.2228 175.96 45.2228 175.896 45.2324C175.655 45.2553 175.416 45.2912 175.179 45.34H175.166C175.114 45.3508 175.065 45.3701 175.013 45.382C174.775 45.4329 174.541 45.4976 174.31 45.5756C174.292 45.582 174.276 45.5928 174.257 45.6003C173.927 45.7183 173.608 45.8655 173.304 46.0402L158.117 54.8506C158.421 54.6765 158.739 54.5293 159.069 54.4106C159.315 54.3233 159.567 54.2515 159.823 54.1955C159.876 54.1837 159.924 54.1633 159.977 54.1536C160.283 54.0933 160.594 54.0541 160.905 54.0363C160.97 54.0363 161.035 54.0299 161.099 54.0267C161.414 54.0144 161.73 54.0209 162.044 54.046L162.159 54.0578C162.505 54.0911 162.849 54.1439 163.189 54.216L163.297 54.2396C163.666 54.3222 164.031 54.4242 164.39 54.5451L164.466 54.5698C164.853 54.7021 165.247 54.8603 165.646 55.042L165.727 55.0797C166.131 55.2679 166.542 55.4777 166.958 55.7175L193.282 70.8955C193.702 71.1379 194.117 71.4007 194.525 71.6839L194.6 71.7366C194.979 72.0027 195.355 72.2848 195.725 72.5831L195.849 72.6842C196.208 72.9775 196.56 73.2848 196.906 73.606L197.028 73.7201C197.378 74.0506 197.722 74.3938 198.06 74.7494L198.143 74.8366C198.502 75.2195 198.852 75.6157 199.193 76.0251L199.205 76.0391C199.554 76.4586 199.891 76.8888 200.218 77.3298V77.3352C200.516 77.7386 200.802 78.1537 201.079 78.5743C201.253 78.8357 201.417 79.1057 201.581 79.3735C201.719 79.5961 201.861 79.8156 201.993 80.0414C202.056 80.149 202.116 80.2566 202.177 80.3695C202.392 80.7503 202.608 81.1332 202.801 81.5215C202.823 81.5645 202.846 81.6065 202.867 81.6495C203.107 82.1238 203.334 82.6036 203.545 83.0865L203.577 83.1607C203.784 83.6354 203.977 84.1123 204.155 84.5913L204.19 84.6859C204.371 85.1771 204.537 85.6698 204.687 86.1638C204.695 86.1929 204.703 86.2219 204.712 86.251C204.854 86.7253 204.981 87.2007 205.092 87.674L205.124 87.8095C205.232 88.2989 205.333 88.7873 205.411 89.2724V89.2939C205.489 89.7843 205.546 90.2705 205.587 90.7535L205.597 90.8707C205.635 91.3537 205.656 91.8323 205.655 92.3045L205.569 122.512C205.569 122.983 205.544 123.437 205.504 123.874L205.491 123.991C205.452 124.391 205.395 124.777 205.322 125.148C205.313 125.198 205.303 125.248 205.292 125.297C205.221 125.645 205.132 125.988 205.026 126.327C205.007 126.39 204.985 126.45 204.965 126.511C204.866 126.811 204.75 127.106 204.62 127.394C204.605 127.427 204.593 127.462 204.578 127.493C204.432 127.805 204.265 128.107 204.078 128.397C204.054 128.434 204.028 128.467 204.003 128.504C203.854 128.725 203.693 128.938 203.52 129.141C203.458 129.213 203.393 129.281 203.33 129.35C203.182 129.508 203.027 129.659 202.863 129.8C202.796 129.86 202.731 129.92 202.662 129.975C202.435 130.158 202.195 130.325 201.943 130.474L217.131 121.663C217.382 121.514 217.622 121.347 217.849 121.163C217.918 121.108 217.983 121.048 218.049 120.99C218.213 120.848 218.369 120.697 218.517 120.538C218.581 120.469 218.645 120.402 218.706 120.33C218.88 120.127 219.042 119.914 219.19 119.693C219.215 119.656 219.242 119.624 219.265 119.585L219.283 119.561C219.457 119.288 219.614 119.004 219.752 118.712L219.765 118.681C219.78 118.65 219.792 118.616 219.806 118.584C219.891 118.397 219.975 118.206 220.051 118.006C220.087 117.906 220.119 117.801 220.153 117.699C220.172 117.637 220.194 117.578 220.213 117.517C220.233 117.456 220.251 117.409 220.267 117.352C220.327 117.147 220.383 116.936 220.433 116.719C220.45 116.642 220.464 116.562 220.48 116.484L220.51 116.337C220.525 116.262 220.542 116.189 220.555 116.111C220.588 115.917 220.618 115.72 220.643 115.518C220.657 115.411 220.668 115.293 220.679 115.179C220.679 115.14 220.687 115.101 220.69 115.062C220.694 115.024 220.701 114.969 220.706 114.92C220.722 114.729 220.734 114.534 220.742 114.335C220.751 114.136 220.755 113.938 220.756 113.735V113.7L220.842 83.492C220.842 83.307 220.84 83.1209 220.834 82.9338Z" fill="#CCCCCC"/>
<path d="M193.279 70.8912C200.136 74.8441 205.681 84.4353 205.66 92.3034L205.573 122.511C205.551 130.387 199.972 133.563 193.113 129.61L166.788 114.432C159.924 110.475 154.379 100.879 154.401 93.008L154.486 62.8004C154.509 54.9323 160.087 51.756 166.954 55.7132L193.279 70.8912Z" fill="#E6E6E6"/>
<path d="M194.458 96.0154C192.932 91.482 189.91 87.6002 185.887 85.0054C185.473 84.7662 185.045 84.5525 184.605 84.3654L184.509 84.1987C183.102 81.6966 181.084 79.5902 178.644 78.0752C176.519 76.8512 174.394 76.5425 172.754 77.4299C172.048 77.8824 171.463 78.4983 171.047 79.2252C170.631 79.9522 170.397 80.7688 170.365 81.6054C169.786 81.3776 169.165 81.2749 168.543 81.3042C167.922 81.3335 167.314 81.4941 166.759 81.7753C165.358 82.5186 164.561 84.1987 164.558 86.4349C164.703 88.9734 165.445 91.442 166.725 93.6398C168.006 95.8377 169.787 97.7027 171.926 99.083L185.783 107.073C191.106 110.141 195.449 107.709 195.508 101.621C195.483 99.7064 195.128 97.8099 194.458 96.0154Z" fill="#27AE60"/>
<path d="M470.415 79.6124C470.408 79.4134 470.4 79.2134 470.387 79.0133C470.381 78.9219 470.372 78.8304 470.365 78.7379L470.356 78.6196C470.349 78.5497 470.346 78.4798 470.338 78.411C470.319 78.2087 470.297 78.0062 470.272 77.8032C470.245 77.5967 470.216 77.3891 470.182 77.1805V77.1622V77.1363C470.151 76.9427 470.117 76.7488 470.082 76.5544C470.041 76.3393 469.997 76.1242 469.95 75.9091C469.933 75.8316 469.914 75.7542 469.896 75.6778L469.864 75.5423C469.842 75.4476 469.821 75.3541 469.799 75.2594C469.744 75.0443 469.691 74.8206 469.625 74.6011C469.581 74.4409 469.533 74.2784 469.484 74.1203L469.458 74.03C469.45 74.002 469.442 73.974 469.434 73.9461C469.368 73.731 469.3 73.5158 469.228 73.3007C469.156 73.0856 469.084 72.8748 469.012 72.6682C468.998 72.6295 468.982 72.5908 468.968 72.551C468.954 72.5112 468.944 72.4875 468.932 72.4553C468.883 72.3241 468.835 72.1928 468.784 72.0616C468.705 71.8594 468.625 71.6593 468.541 71.4582C468.48 71.3141 468.418 71.1699 468.355 71.0279L468.323 70.9526C468.31 70.9247 468.299 70.8967 468.286 70.8698C468.198 70.6687 468.108 70.4697 468.014 70.2707C467.911 70.0513 467.803 69.8329 467.691 69.6157C467.675 69.5823 467.656 69.55 467.64 69.5167C467.624 69.4834 467.595 69.4307 467.573 69.3876C467.485 69.2155 467.398 69.0424 467.306 68.8703C467.191 68.6551 467.069 68.4465 466.949 68.2356C466.887 68.1281 466.828 68.0205 466.766 67.913C466.741 67.8699 466.718 67.8269 466.693 67.785C466.586 67.601 466.465 67.4246 466.353 67.2472C466.187 66.9793 466.03 66.7094 465.852 66.4501C465.824 66.4082 465.8 66.3641 465.772 66.3232C465.52 65.946 465.259 65.5753 464.991 65.211V65.2046C464.811 64.9604 464.626 64.7184 464.439 64.4807C464.287 64.2881 464.132 64.0978 463.976 63.9095L463.967 63.8988L463.96 63.8891C463.801 63.6998 463.642 63.5126 463.479 63.3287C463.317 63.1448 463.156 62.9694 462.997 62.7909C462.97 62.7619 462.943 62.735 462.916 62.707C462.889 62.679 462.861 62.6489 462.833 62.6199C462.719 62.4983 462.605 62.3768 462.488 62.2585C462.315 62.0831 462.14 61.91 461.964 61.7411C461.911 61.6895 461.856 61.6411 461.802 61.5905L461.669 61.4668C461.583 61.3861 461.497 61.3044 461.409 61.2259C461.227 61.0609 461.044 60.9007 460.858 60.7451C460.777 60.6773 460.696 60.6128 460.615 60.5472L460.489 60.4396C460.428 60.3901 460.368 60.3385 460.305 60.2901C460.125 60.1481 459.943 60.0094 459.766 59.8749C459.635 59.7792 459.503 59.6867 459.37 59.5942L459.295 59.5404L459.227 59.492C459.052 59.3726 458.876 59.2564 458.699 59.1446C458.522 59.0327 458.35 58.9294 458.175 58.8219L458.053 58.7509L431.727 43.574C431.596 43.4976 431.463 43.4234 431.333 43.3524C431.162 43.261 430.993 43.1728 430.823 43.09C430.716 43.0351 430.608 42.9824 430.5 42.9361L430.418 42.8974L430.324 42.8522C430.157 42.7805 429.991 42.7106 429.826 42.6425C429.658 42.5747 429.49 42.5124 429.324 42.4532L429.239 42.4263L429.163 42.4005C429.055 42.3628 428.937 42.3241 428.826 42.2929C428.654 42.2413 428.483 42.1943 428.313 42.152C428.231 42.1316 428.15 42.1154 428.069 42.0972L427.962 42.0735C427.91 42.0627 427.854 42.0488 427.804 42.0391C427.621 42.0025 427.44 41.9735 427.266 41.9487C427.158 41.9337 427.05 41.9261 426.943 41.9154L426.827 41.9036C426.791 41.9036 426.753 41.8949 426.72 41.8928C426.521 41.8788 426.328 41.8724 426.136 41.8734C426.051 41.8734 425.969 41.882 425.885 41.8853L425.691 41.8939C425.624 41.8939 425.556 41.8939 425.491 41.9036C425.25 41.9266 425.011 41.9625 424.774 42.0111H424.761C424.709 42.0219 424.661 42.0412 424.61 42.0531C424.372 42.1039 424.137 42.1685 423.906 42.2467C423.887 42.2531 423.871 42.2639 423.852 42.2714C423.522 42.3894 423.204 42.5367 422.9 42.7113L407.713 51.5217C408.017 51.3479 408.336 51.2007 408.665 51.0818C408.912 50.9948 409.164 50.923 409.419 50.8666C409.471 50.8548 409.519 50.8354 409.572 50.8247C409.879 50.7645 410.189 50.7253 410.502 50.7074C410.566 50.7074 410.631 50.701 410.695 50.6988C411.01 50.6857 411.326 50.6918 411.64 50.7171L411.755 50.729C412.101 50.7623 412.445 50.8151 412.785 50.8871L412.893 50.9107C413.262 50.9932 413.627 51.0952 413.986 51.2162L414.062 51.241C414.45 51.3743 414.845 51.5317 415.247 51.7131L415.328 51.7508C415.733 51.939 416.143 52.1498 416.559 52.3886L442.884 67.5666C443.303 67.8086 443.718 68.0732 444.126 68.355L444.201 68.4077C444.582 68.6731 444.957 68.9552 445.326 69.2543L445.451 69.3554C445.81 69.6494 446.161 69.9566 446.506 70.2772L446.629 70.3912C446.98 70.7217 447.324 71.0649 447.661 71.4205L447.744 71.5077C448.103 71.8906 448.453 72.285 448.794 72.6908L448.806 72.7048C449.155 73.1243 449.493 73.5546 449.819 73.9956V74.002C450.117 74.4043 450.402 74.8195 450.681 75.24C450.856 75.5025 451.018 75.7714 451.184 76.0392C451.321 76.2619 451.463 76.4813 451.596 76.7072C451.658 76.8147 451.717 76.9223 451.78 77.0299C451.995 77.4106 452.211 77.7935 452.403 78.1818C452.425 78.2249 452.449 78.2668 452.47 78.3098C452.709 78.7845 452.935 79.2636 453.148 79.7469L453.179 79.8211C453.386 80.2958 453.578 80.7726 453.757 81.2516L453.793 81.3463C453.972 81.8382 454.138 82.3308 454.288 82.8242L454.314 82.9113C454.458 83.386 454.584 83.8607 454.694 84.3354C454.705 84.3795 454.716 84.4247 454.726 84.4699C454.833 84.9593 454.935 85.4476 455.012 85.9327V85.9553C455.09 86.4444 455.149 86.9305 455.189 87.4138L455.198 87.5311C455.236 88.014 455.257 88.4927 455.256 88.9649L455.17 119.172C455.17 119.645 455.146 120.097 455.105 120.534C455.105 120.574 455.097 120.612 455.093 120.651C455.052 121.052 454.996 121.438 454.924 121.809C454.914 121.859 454.904 121.909 454.894 121.958C454.822 122.317 454.733 122.66 454.628 122.989C454.608 123.05 454.587 123.111 454.566 123.173C454.467 123.472 454.351 123.767 454.22 124.055C454.206 124.087 454.194 124.122 454.178 124.155C454.033 124.466 453.866 124.768 453.68 125.057C453.656 125.095 453.628 125.127 453.603 125.165C453.455 125.386 453.294 125.599 453.121 125.801C453.059 125.873 452.995 125.941 452.93 126.01C452.783 126.169 452.627 126.319 452.464 126.461C452.397 126.52 452.331 126.58 452.262 126.635C452.036 126.819 451.795 126.986 451.544 127.134L466.731 118.324C466.983 118.175 467.223 118.008 467.45 117.824C467.518 117.769 467.584 117.708 467.651 117.65C467.814 117.508 467.97 117.357 468.118 117.199C468.182 117.131 468.247 117.063 468.308 116.991C468.481 116.788 468.642 116.575 468.791 116.353C468.815 116.317 468.843 116.284 468.867 116.246L468.884 116.221C469.058 115.948 469.215 115.665 469.353 115.372L469.367 115.341C469.381 115.311 469.393 115.277 469.407 115.245C469.493 115.057 469.577 114.867 469.651 114.667C469.689 114.567 469.719 114.461 469.759 114.359C469.779 114.298 469.8 114.239 469.819 114.177C469.839 114.116 469.857 114.07 469.874 114.013C469.934 113.808 469.989 113.596 470.039 113.379C470.057 113.303 470.07 113.222 470.086 113.145C470.097 113.096 470.107 113.047 470.116 112.997C470.13 112.922 470.148 112.849 470.162 112.771C470.195 112.578 470.224 112.381 470.25 112.179C470.264 112.071 470.274 111.953 470.286 111.839C470.286 111.8 470.294 111.761 470.297 111.723C470.301 111.684 470.308 111.629 470.312 111.582C470.328 111.389 470.339 111.195 470.348 110.996C470.357 110.797 470.361 110.599 470.362 110.395V110.36L470.448 80.1524C470.423 79.9856 470.42 79.7996 470.415 79.6124Z" fill="#CCCCCC"/>
<path d="M442.86 67.5699C449.716 71.5227 455.262 81.1151 455.239 88.9821L455.154 119.19C455.131 127.065 449.553 130.242 442.693 126.289L416.368 111.111C409.505 107.154 403.96 97.558 403.982 89.6866L404.068 59.4791C404.09 51.6121 409.669 48.4358 416.535 52.3919L442.86 67.5699Z" fill="#E6E6E6"/>
<path d="M438.086 87.8473C436.692 86.5989 435.278 85.4365 433.844 84.3602C433.137 83.8224 432.432 83.3179 431.725 82.8285C430.55 82.0379 429.362 81.271 428.187 80.5945C427.011 79.9179 425.823 79.3123 424.648 78.7487L424.658 75.3229C424.664 73.0813 426.254 72.1767 428.212 73.3029C429.24 73.9701 430.095 74.8704 430.708 75.9305C431.321 76.9906 431.674 78.1803 431.739 79.4027L433.859 80.6246C433.756 78.6696 433.191 76.7667 432.211 75.0713C431.231 73.376 429.863 71.9362 428.219 70.8698C425.095 69.0682 422.552 70.5138 422.543 74.0967L422.532 77.8323C421.147 77.2713 419.728 76.8007 418.283 76.4232C417.056 76.1145 416.207 76.9159 416.208 78.3798C416.212 78.7324 416.253 79.0836 416.332 79.4274L418.923 90.2911C420.226 95.7692 424.025 100.974 428.123 103.337C429.041 103.881 430.039 104.277 431.081 104.51C431.729 104.692 432.408 104.744 433.077 104.662C433.746 104.581 434.392 104.367 434.977 104.034C435.563 103.701 436.076 103.255 436.487 102.722C436.899 102.189 437.2 101.579 437.373 100.929L440.019 93.0899C440.488 91.6367 439.658 89.3252 438.086 87.8473ZM428.15 93.5986C427.739 93.3317 427.397 92.9717 427.152 92.5477C426.907 92.1238 426.765 91.648 426.739 91.1591C426.739 90.261 427.379 89.9007 428.16 90.3513C428.571 90.6179 428.913 90.9779 429.158 91.4019C429.403 91.826 429.544 92.3019 429.57 92.7908C429.571 93.6868 428.931 94.0493 428.15 93.5986Z" fill="#F2C955"/>
<path d="M437.002 1H493.012V151.415L437.002 183.854V1Z" fill="url(#paint0_linear)"/>
<path d="M437.035 1H380.993V151.798L437.035 184.32V1Z" fill="url(#paint1_linear)"/>
<path d="M186.695 0H243.695V150.451L186.695 182.898V0Z" fill="url(#paint2_linear)"/>
<path d="M186.695 0H130.695V150.451L186.695 182.898V0Z" fill="url(#paint3_linear)"/>
<defs>
<linearGradient id="paint0_linear" x1="465.782" y1="183.19" x2="464.238" y2="1.07072" gradientUnits="userSpaceOnUse">
<stop stop-color="#F2F2F2" stop-opacity="0.1"/>
<stop offset="1" stop-color="#F2F2F2" stop-opacity="0"/>
</linearGradient>
<linearGradient id="paint1_linear" x1="408.238" y1="183.654" x2="409.79" y2="1.07096" gradientUnits="userSpaceOnUse">
<stop stop-color="#F2F2F2" stop-opacity="0.2"/>
<stop offset="1" stop-color="#F2F2F2" stop-opacity="0"/>
</linearGradient>
<linearGradient id="paint2_linear" x1="215.983" y1="182.234" x2="214.465" y2="0.0702905" gradientUnits="userSpaceOnUse">
<stop stop-color="#F2F2F2" stop-opacity="0.1"/>
<stop offset="1" stop-color="#F2F2F2" stop-opacity="0"/>
</linearGradient>
<linearGradient id="paint3_linear" x1="157.92" y1="182.234" x2="159.466" y2="0.0707545" gradientUnits="userSpaceOnUse">
<stop stop-color="#F2F2F2" stop-opacity="0.2"/>
<stop offset="1" stop-color="#F2F2F2" stop-opacity="0"/>
</linearGradient>
</defs>
</svg>
