<svg width="52" height="64" viewBox="0 0 52 64" fill="none" xmlns="http://www.w3.org/2000/svg">
<path d="M27.8779 32.6051L27.9493 57.2806L39.7002 64L39.6288 39.3251L27.8779 32.6051Z" fill="#999999"/>
<path d="M39.6294 39.3251L39.7008 64L51.5249 57.2825L51.4535 32.6075L39.6294 39.3251Z" fill="#404040"/>
<path d="M27.8786 32.6051L39.6295 39.3251L51.4536 32.6075L39.7027 25.8882L27.8786 32.6051Z" fill="#545454"/>
<path d="M0.475076 6.71692L0.545835 57.2806L12.2974 63.9999L12.226 13.4369L0.475076 6.71692Z" fill="#999999"/>
<path d="M12.2257 13.4369L12.2971 64L24.1206 57.2825L24.0498 6.71942L12.2257 13.4369Z" fill="#404040"/>
<path d="M0.474758 6.71692L12.2257 13.4369L24.0498 6.71934L12.2989 0L0.474758 6.71692Z" fill="#545454"/>
</svg>
